<?xml version="1.0" encoding="UTF-8"?>
<svg width="277px" height="81px" viewBox="0 0 277 81" version="1.1" xmlns="http://www.w3.org/2000/svg" xmlns:xlink="http://www.w3.org/1999/xlink">
    <!-- Generator: Sketch 48.1 (47250) - http://www.bohemiancoding.com/sketch -->
    <title>Group 2</title>
    <desc>Created with Sketch.</desc>
    <defs>
        <path d="M59,38 L294,38 C295.656854,38 297,39.3431458 297,41 L297,71 C297,72.6568542 295.656854,74 294,74 L61,74 C59.3431458,74 58,72.6568542 58,71 L58,39 C58,38.4477153 58.4477153,38 59,38 Z" id="path-1"></path>
        <linearGradient x1="50%" y1="0%" x2="100%" y2="50%" id="linearGradient-2">
            <stop stop-color="#F1366B" offset="0%"></stop>
            <stop stop-color="#015E9B" offset="100%"></stop>
        </linearGradient>
        <path d="M22.7941491,21.3150289 C22.7941491,22.3747645 22.4849984,23.2117021 21.8666876,23.8258671 C21.2483769,24.440032 20.3447055,24.7471098 19.1556464,24.7471098 C18.8464911,24.7471098 18.5373403,24.710983 18.228185,24.6387283 C17.9190296,24.5664736 17.5920432,24.4340087 17.2472161,24.2413295 C16.902389,24.0486503 16.5991834,23.8680163 16.3375904,23.699422 C16.0759974,23.5308277 15.7490111,23.2719189 15.3566216,22.9226879 C14.9642321,22.5734568 14.6550813,22.2964846 14.4291601,22.091763 C14.2032389,21.8870414 13.8524717,21.555879 13.3768481,21.0982659 C12.9012244,20.6406528 12.5564025,20.3034693 12.3423718,20.0867052 L5.81446996,13.8367052 L5.81446996,21.6763006 C5.81446996,22.8564606 5.59449732,23.6632926 5.15454545,24.0968208 C4.71459359,24.530349 4.01900444,24.7471098 3.06775716,24.7471098 C2.02138514,24.7471098 1.24850832,24.5062645 0.749103492,24.0245665 C0.249698667,23.5428685 0,22.7360365 0,21.6040462 L0,4.15462428 C0,2.78178504 0.344821969,1.74614993 1.03447625,1.04768786 C1.72413053,0.349225795 2.71103479,0 3.99521862,0 C4.87512236,0 5.58260192,0.138486091 6.11767852,0.415462428 C6.65275511,0.692438764 7.28889219,1.19219292 8.02610884,1.91473988 L17.0510223,11.0187861 L17.0510223,3.14306358 C17.0510223,2.10741293 17.3066662,1.3306866 17.8179616,0.812861272 C18.329257,0.295035947 19.0248462,0.0361271676 19.9047499,0.0361271676 C20.9273408,0.0361271676 21.6645463,0.276972543 22.1163888,0.75867052 C22.5682313,1.2403685 22.7941491,2.02311597 22.7941491,3.10693642 L22.7941491,21.3150289 Z M35.6478138,24.9638728 C33.7691004,24.9638728 32.2114563,24.1871465 30.9748349,22.6336705 C29.7382134,21.0801945 29.1199119,18.9547341 29.1199119,16.2572254 C29.1199119,13.511547 29.7322682,11.3258752 30.9569991,9.70014451 C32.1817299,8.07441384 33.7453192,7.26156069 35.6478138,7.26156069 C37.5740895,7.26156069 39.3576514,7.94797001 40.998553,9.32080925 C41.6406449,8.11656431 42.6751108,7.51445087 44.1019818,7.51445087 C45.3861656,7.51445087 46.3849603,7.79744418 47.0983957,8.36343931 C47.8118312,8.92943443 48.1685436,9.97109068 48.1685436,11.4884393 L48.1685436,20.8815029 C48.1685436,22.3265968 47.8712832,23.3321263 47.2767537,23.8981214 C46.6822241,24.4641165 45.6358678,24.7471098 44.1376534,24.7471098 C42.5680953,24.7471098 41.5336294,24.3015459 41.0342246,23.4104046 C39.5122289,24.4460553 37.7167766,24.9638728 35.6478138,24.9638728 Z M40.4991507,12.7890173 C40.0948706,12.0905553 39.5716924,11.7413295 38.9296005,11.7413295 C38.3112898,11.7413295 37.8118924,12.1989357 37.4313935,13.1141618 C37.0508946,14.029388 36.860648,15.0770654 36.860648,16.2572254 C36.860648,17.3651308 37.0390042,18.3525968 37.3957219,19.2196532 C37.7524397,20.0867095 38.251837,20.5202312 38.8939289,20.5202312 C39.559802,20.5202312 40.0948706,20.19509 40.4991507,19.5447977 L40.4991507,12.7890173 Z M65.445486,15.0289017 C65.445486,13.6801474 64.9223078,13.0057803 63.8759358,13.0057803 C63.376531,13.0057803 62.9663118,13.2165201 62.6452658,13.6380058 C62.3242198,14.0594915 62.1399185,14.619457 62.0923561,15.3179191 L62.0923561,20.8815029 C62.0923561,22.3506817 61.7950958,23.3622323 61.2005662,23.916185 C60.6060367,24.4701376 59.5596803,24.7471098 58.0614659,24.7471098 C56.6583761,24.7471098 55.7011979,24.4159474 55.1899025,23.7536127 C54.6786071,23.091278 54.4229632,22.0014527 54.4229632,20.484104 L54.4229632,11.5968208 C54.4229632,10.368491 54.7499495,9.38102493 55.4039321,8.63439306 C56.0579146,7.8877612 56.9318599,7.51445087 58.0257943,7.51445087 C58.9294792,7.51445087 59.6904656,7.64691582 60.3087763,7.91184971 C60.9270871,8.1767836 61.3908132,8.63438981 61.6999685,9.28468208 C63.5549007,8.05635224 65.8140792,7.44219653 68.4775716,7.44219653 C70.1660355,7.44219653 71.3848028,8.11656358 72.13391,9.46531792 C72.8830173,10.8140723 73.2575653,13.0298497 73.2575653,16.1127168 C73.2575653,17.6300654 73.221894,18.8643979 73.1505505,19.8157514 C73.0792069,20.7671049 72.966248,21.5859792 72.8116703,22.2723988 C72.6570927,22.9588185 72.4133392,23.4706149 72.0804026,23.8078035 C71.7474661,24.1449921 71.3610277,24.3858374 70.9210758,24.5303468 C70.4811239,24.6748562 69.9163293,24.7471098 69.2266751,24.7471098 C67.8949289,24.7471098 66.9377506,24.4942222 66.3551117,23.9884393 C65.7724727,23.4826564 65.4811576,22.7360358 65.4811576,21.7485549 L65.445486,15.0289017 Z M89.6427178,11.2355491 C89.6427178,10.6815965 89.3335671,10.4046243 88.7152564,10.4046243 C88.2634139,10.4046243 87.8591399,10.6575119 87.5024221,11.1632948 C87.1457044,11.6690777 86.8722249,12.3012968 86.6819755,13.0599711 C86.491726,13.8186454 86.3966027,14.607414 86.3966027,15.4263006 C86.3966027,16.6305455 86.7592603,17.6059693 87.4845863,18.3526012 C88.2099124,19.099233 89.1908715,19.4725434 90.4274929,19.4725434 C91.6403332,19.4725434 92.6866895,19.3280361 93.5665933,19.0390173 C93.923311,18.9426777 94.3573111,18.7620437 94.8686065,18.4971098 C95.3799019,18.2321759 95.7425595,18.099711 95.9565901,18.099711 C96.2895267,18.099711 96.5630062,18.1599223 96.7770368,18.2803468 C96.9910674,18.4007713 97.1396976,18.5452785 97.2229317,18.7138728 C97.3061659,18.8824671 97.3477823,19.0631012 97.3477823,19.2557803 C97.3477823,19.5929689 97.2348234,20.0024061 97.0089022,20.484104 C96.7829809,20.965802 96.4322138,21.4715773 95.9565901,22.0014451 C95.4809665,22.5313129 94.9280623,23.0190247 94.297861,23.4645954 C93.6676596,23.910166 92.8888376,24.2774552 91.9613715,24.566474 C91.0339054,24.8554928 90.0588916,25 89.0363007,25 C86.0874341,25 83.6617899,24.1991891 81.7592954,22.5975434 C79.8568008,20.9958976 78.9055678,18.7981835 78.9055678,16.0043353 C78.9055678,14.2220527 79.3395679,12.6625789 80.207581,11.3258671 C81.0755941,9.98915517 82.2705806,8.97760459 83.7925763,8.29118497 C85.3145719,7.60476535 87.0624626,7.26156069 89.0363007,7.26156069 C90.9150141,7.26156069 92.466713,7.48434267 93.6914439,7.92991329 C94.9161747,8.37548392 95.7901201,8.97157623 96.3133061,9.71820809 C96.8364921,10.46484 97.0980812,11.3559678 97.0980812,12.3916185 C97.0980812,12.8492316 97.0089031,13.3188801 96.8305442,13.800578 C96.6521853,14.282276 96.3787058,14.7639668 96.0100975,15.2456647 C95.6414892,15.7273627 95.1004754,16.1187365 94.3870399,16.4197977 C93.6736045,16.7208589 92.8412756,16.8713873 91.8900283,16.8713873 C91.461967,16.8713873 91.1111999,16.8473027 90.8377163,16.7991329 C90.5642327,16.7509632 90.2788628,16.6486039 89.981598,16.492052 C89.6843332,16.3355002 89.4643606,16.0765914 89.3216735,15.7153179 C89.1789864,15.3540444 89.1076439,14.8964382 89.1076439,14.3424855 C89.1076439,13.8607876 89.196822,13.2767375 89.3751809,12.5903179 C89.5535397,11.9038983 89.6427178,11.4523132 89.6427178,11.2355491 Z M109.809059,24.9638728 C107.930346,24.9638728 106.372702,24.1871465 105.136081,22.6336705 C103.899459,21.0801945 103.281158,18.9547341 103.281158,16.2572254 C103.281158,13.511547 103.893514,11.3258752 105.118245,9.70014451 C106.342976,8.07441384 107.906565,7.26156069 109.809059,7.26156069 C111.735335,7.26156069 113.518897,7.94797001 115.159799,9.32080925 C115.801891,8.11656431 116.836357,7.51445087 118.263227,7.51445087 C119.547411,7.51445087 120.546206,7.79744418 121.259641,8.36343931 C121.973077,8.92943443 122.329789,9.97109068 122.329789,11.4884393 L122.329789,20.8815029 C122.329789,22.3265968 122.032529,23.3321263 121.437999,23.8981214 C120.84347,24.4641165 119.797113,24.7471098 118.298899,24.7471098 C116.729341,24.7471098 115.694875,24.3015459 115.19547,23.4104046 C113.673475,24.4460553 111.878022,24.9638728 109.809059,24.9638728 Z M114.660396,12.7890173 C114.256116,12.0905553 113.732938,11.7413295 113.090846,11.7413295 C112.472535,11.7413295 111.973138,12.1989357 111.592639,13.1141618 C111.21214,14.029388 111.021894,15.0770654 111.021894,16.2572254 C111.021894,17.3651308 111.20025,18.3525968 111.556968,19.2196532 C111.913685,20.0867095 112.413083,20.5202312 113.055175,20.5202312 C113.721048,20.5202312 114.256116,20.19509 114.660396,19.5447977 L114.660396,12.7890173 Z M136.324945,20.8815029 C136.324945,22.3265968 136.027685,23.3321263 135.433155,23.8981214 C134.838626,24.4641165 133.780379,24.7471098 132.258383,24.7471098 C130.855293,24.7471098 129.90406,24.4159474 129.404656,23.7536127 C128.905251,23.091278 128.655552,22.0014527 128.655552,20.484104 L128.655552,11.5968208 C128.655552,10.7779342 128.798237,10.0614193 129.083611,9.44725434 C129.368985,8.83308941 129.78515,8.3574198 130.332117,8.02023121 C130.879084,7.68304263 131.521166,7.51445087 132.258383,7.51445087 C134.065753,7.51445087 135.254794,8.04431069 135.825543,9.10404624 C137.204851,8.04431069 138.536577,7.51445087 139.820761,7.51445087 C142.317785,7.51445087 143.566279,8.71867775 143.566279,11.1271676 C143.566279,12.0905636 143.292799,12.8733111 142.745832,13.4754335 C142.198865,14.077556 141.48544,14.3786127 140.605536,14.3786127 C140.08235,14.3786127 139.660241,14.2702323 139.339195,14.0534682 C139.018149,13.8367041 138.720888,13.6199433 138.447405,13.4031792 C138.173921,13.1864151 137.858825,13.0780347 137.502108,13.0780347 C136.978922,13.0780347 136.586538,13.2586687 136.324945,13.6199422 L136.324945,20.8815029 Z M157.561434,24.9638728 C154.66013,24.9638728 152.264212,24.2052099 150.373608,22.6878613 C148.483004,21.1705126 147.537716,19.0992424 147.537716,16.4739884 C147.537716,13.6319704 148.471114,11.3860872 150.337936,9.73627168 C152.204759,8.08645611 154.612568,7.26156069 157.561434,7.26156069 C160.343833,7.26156069 162.383039,7.76131485 163.679113,8.76083815 C164.975187,9.76036145 165.623215,11.127159 165.623215,12.8612717 C165.623215,13.1984603 165.581598,13.5236015 165.498364,13.8367052 C165.41513,14.1498089 165.284336,14.4568867 165.105977,14.757948 C164.927618,15.0590092 164.68981,15.3359814 164.392545,15.5888728 C164.09528,15.8417643 163.756403,16.0705674 163.375904,16.275289 C162.995405,16.4800107 162.54357,16.6365602 162.020384,16.7449422 C161.497198,16.8533242 160.938348,16.9075145 160.343819,16.9075145 L155.314124,16.9436416 C155.551936,17.7143584 155.979991,18.322493 156.598301,18.7680636 C157.216612,19.2136342 158.001379,19.4364162 158.952627,19.4364162 C159.975217,19.4364162 161.021574,19.3039512 162.091727,19.0390173 C162.543569,18.9185928 163.037022,18.7259165 163.572098,18.4609827 C164.107175,18.1960488 164.493613,18.0635838 164.731425,18.0635838 C165.135705,18.0635838 165.450801,18.1840065 165.676722,18.4248555 C165.902643,18.6657045 166.015602,18.9667612 166.015602,19.3280347 C166.015602,19.7615629 165.825356,20.2854016 165.444857,20.8995665 C165.064358,21.5137314 164.535235,22.1278871 163.857471,22.742052 C163.179707,23.3562169 162.281981,23.8800556 161.164265,24.3135838 C160.04655,24.747112 158.845618,24.9638728 157.561434,24.9638728 Z M155.135766,14.6315029 C156.776668,14.607418 157.668448,14.5953757 157.811136,14.5953757 C158.167853,14.5953757 158.429442,14.3786149 158.595911,13.9450867 C158.714817,13.631983 158.774269,13.1984613 158.774269,12.6445087 C158.774269,11.12716 158.322433,10.3684971 157.418748,10.3684971 C157.085811,10.3684971 156.758825,10.5491311 156.437779,10.9104046 C156.116733,11.2716781 155.837309,11.7834745 155.599497,12.4458092 C155.361685,13.108144 155.20711,13.8367012 155.135766,14.6315029 Z M180.331802,7.26156069 C182.543452,7.26156069 184.386466,7.71916691 185.8609,8.63439306 C187.335333,9.54961922 188.072539,10.5491275 188.072539,11.632948 C188.072539,11.9460517 187.941744,12.2350661 187.680151,12.5 C187.418558,12.7649339 187.085626,12.8973988 186.681346,12.8973988 C186.324629,12.8973988 185.932245,12.770955 185.504184,12.5180636 C185.076122,12.2651721 184.671848,11.9942211 184.291349,11.7052023 C183.910851,11.4161835 183.411453,11.1512536 182.793142,10.9104046 C182.174832,10.6695556 181.520859,10.5491329 180.831205,10.5491329 C179.903739,10.5491329 179.440013,10.8381474 179.440013,11.416185 C179.440013,11.8256283 179.677821,12.1507695 180.153444,12.3916185 C180.629068,12.6324675 181.324657,12.8853551 182.240233,13.150289 C183.155808,13.4152229 183.851397,13.6681105 184.327021,13.9089595 C186.11061,14.6074216 187.335322,15.3600634 188.001195,16.1669075 C188.667068,16.9737516 189,18.0394924 189,19.3641618 C189,20.0144541 188.821644,20.6587155 188.464926,21.2969653 C188.108208,21.9352151 187.57314,22.5373286 186.859704,23.1033237 C186.146269,23.6693188 185.1772,24.126925 183.952469,24.4761561 C182.727738,24.8253871 181.330615,25 179.761057,25 C176.693284,25 174.398435,24.2895061 172.876439,22.8684971 C172.139222,22.170035 171.77062,21.4474989 171.77062,20.7008671 C171.77062,20.243254 171.91925,19.8819859 172.216515,19.617052 C172.513779,19.3521181 172.935889,19.2196532 173.482856,19.2196532 C174.029823,19.2196532 174.862152,19.4906042 175.979868,20.0325145 C177.097583,20.5744247 178.132049,20.8453757 179.083297,20.8453757 C180.391262,20.8453757 181.045234,20.5202345 181.045234,19.8699422 C181.045234,19.5327536 180.700412,19.2618026 180.010758,19.0570809 C179.321104,18.8523593 178.417432,18.6054928 177.299717,18.316474 C176.182001,18.0274552 175.29022,17.6661871 174.624347,17.232659 C173.577975,16.7750459 172.846715,16.2030381 172.430544,15.5166185 C172.014374,14.8301989 171.806291,13.9932612 171.806291,13.0057803 C171.806291,11.3198374 172.597004,9.94099765 174.178452,8.86921965 C175.759901,7.79744165 177.810997,7.26156069 180.331802,7.26156069 Z" id="path-3"></path>
    </defs>
    <g id="DustBin-4-NanCares" stroke="none" stroke-width="1" fill="none" fill-rule="evenodd" transform="translate(-321.000000, -468.000000)">
        <g id="Group-2" transform="translate(301.000000, 452.000000)">
            <g id="Group" transform="translate(53.000000, 56.500000) rotate(19.000000) translate(-53.000000, -56.500000) translate(13.000000, 11.000000)" fill="#F1366B">
                <path d="M73.0389368,30.3285682 C72.3801353,31.3959474 72,32.653581 72,34 L72,56 C72,57.9386619 72.7881011,59.693253 74.0614029,60.9608729 L47.1370896,84.3658214 C45.0530167,86.1774784 41.8949036,85.9566416 40.0832466,83.8725687 L7.28029514,46.1370896 C5.46863816,44.0530167 5.68947494,40.8949036 7.7735479,39.0832466 L45.5090269,6.28029514 C47.5930999,4.46863816 50.751213,4.68947494 52.56287,6.7735479 L73.0389368,30.3285682 Z" id="Combined-Shape" transform="translate(40.057585, 45.323058) rotate(-9.000000) translate(-40.057585, -45.323058) "></path>
            </g>
            <g id="Rectangle-10">
                <use fill="#FFFFFF" fill-rule="evenodd" xlink:href="#path-1"></use>
                <path stroke="#015E9B" stroke-width="0.5" d="M59,38.25 C58.5857864,38.25 58.25,38.5857864 58.25,39 L58.25,71 C58.25,72.5187831 59.4812169,73.75 61,73.75 L294,73.75 C295.518783,73.75 296.75,72.5187831 296.75,71 L296.75,41 C296.75,39.4812169 295.518783,38.25 294,38.25 L59,38.25 Z"></path>
            </g>
            <path d="M97.9723835,38 L80,38 C76.1340068,38 73,41.1340068 73,45 L73,67 C73,70.8659932 76.1340068,74 80,74 L97.7071171,74 L79.56287,94.8725687 C77.751213,96.9566416 74.5930999,97.1774784 72.5090269,95.3658214 L34.7735479,62.56287 C32.6894749,60.751213 32.4686382,57.5930999 34.2802951,55.5090269 L67.0832466,17.7735479 C68.8949036,15.6894749 72.0530167,15.4686382 74.1370896,17.2802951 L97.9723835,38 Z" id="Combined-Shape" fill="#015E9B"></path>
            <circle id="Oval" fill-opacity="0.75" fill="url(#linearGradient-2)" cx="288.5" cy="45.5" r="4.5"></circle>
            <path d="M88.3120771,29.3490474 L70.1196355,51.2039946 C68.7658767,52.8302924 68.5824303,55.1326728 69.6615874,56.9528177 L84.6178734,82.1786229 C85.4549055,83.5903912 84.9889898,85.4134041 83.5772216,86.2504362 C82.3423616,86.9825801 80.7606618,86.7273006 79.8188311,85.6438484 L55.5191659,57.6902812 C53.7075089,55.6062082 53.9283457,52.4480951 56.0124186,50.6364381 L84.6379346,25.7526568 C85.7129085,24.8181961 87.3418771,24.9321047 88.2763377,26.0070787 C89.1060956,26.9616059 89.1212319,28.3769935 88.3120771,29.3490474 Z" id="Combined-Shape" fill="#F1366B" transform="translate(71.600793, 55.893047) scale(-1, 1) rotate(-5.000000) translate(-71.600793, -55.893047) "></path>
            <g id="Rectangle-14" transform="translate(94.000000, 43.000000)">
                <mask id="mask-4" fill="white">
                    <use xlink:href="#path-3"></use>
                </mask>
                <use id="Mask" fill="#000000" xlink:href="#path-3"></use>
                <rect fill="#F1366B" mask="url(#mask-4)" x="-4" y="9" width="194" height="2"></rect>
            </g>
        </g>
    </g>
</svg>